<svg version="1.2" xmlns="http://www.w3.org/2000/svg" viewBox="650 500 700 800" width="700" height="800">
	<style>
		tspan { white-space:pre }
		.s0 { fill: #67b8cf }
		.s1 { fill: #fefefe }
		.s2 { fill: #032034 }
		.s3 { fill: #2288af }
		.s4 { fill: #116280 }
		.s5 { fill: #b5dee2 }
		.s6 { fill: #fab87d }
		.s7 { fill: #bc814f }
	</style>
	<g id="LOGO">
		<g id="&lt;Group&gt;">
			<path id="&lt;Path&gt;" class="s0" d="m1001.54 547.32c183.66 0 332.54 148.88 332.54 332.54 0 183.66-148.88 332.54-332.54 332.54-183.65 0-332.54-148.88-332.54-332.54 0-183.66 148.89-332.54 332.54-332.54z"/>
			<path id="&lt;Path&gt;" class="s1" d="m828.57 623.95l6.14 19.99 20 6.14-20 6.14-6.14 20-6.14-20-19.99-6.14 19.99-6.14z"/>
			<path id="&lt;Path&gt;" class="s1" d="m779.17 705.29l3.04 9.9 9.89 3.04-9.89 3.04-3.04 9.89-3.04-9.89-9.89-3.04 9.89-3.04z"/>
			<path id="&lt;Path&gt;" class="s1" d="m891.58 622.69l3.04 9.9 9.89 3.03-9.89 3.04-3.04 9.9-3.04-9.9-9.89-3.04 9.89-3.03z"/>
			<path id="&lt;Path&gt;" class="s1" d="m727.76 848.26l6.14 19.99 19.99 6.14-19.99 6.14-6.14 19.99-6.14-19.99-19.99-6.14 19.99-6.14z"/>
			<path id="&lt;Path&gt;" class="s1" d="m786.39 890.44l3.04 9.89 9.89 3.04-9.89 3.04-3.04 9.89-3.04-9.89-9.89-3.04 9.89-3.04z"/>
			<path id="&lt;Path&gt;" class="s1" d="m1187.57 625.08l-6.14 19.99-19.99 6.14 19.99 6.14 6.14 20 6.14-20 20-6.14-20-6.14z"/>
			<path id="&lt;Path&gt;" class="s1" d="m1235.93 711.83l-3.04 9.89-9.89 3.04 9.89 3.04 3.04 9.9 3.04-9.9 9.89-3.04-9.89-3.04z"/>
			<path id="&lt;Path&gt;" class="s1" d="m1160.65 694.52l-3.04 9.89-9.89 3.04 9.89 3.04 3.04 9.89 3.04-9.89 9.89-3.04-9.89-3.04z"/>
			<path id="&lt;Path&gt;" class="s1" d="m1275.32 848.26l-6.14 19.99-19.99 6.14 19.99 6.14 6.14 19.99 6.14-19.99 20-6.14-20-6.14z"/>
			<path id="&lt;Path&gt;" class="s1" d="m1216.7 890.44l-3.04 9.89-9.9 3.04 9.9 3.04 3.04 9.89 3.03-9.89 9.9-3.04-9.9-3.04z"/>
			<path id="&lt;Path&gt;" class="s1" d="m1291.05 942.11l-3.04 9.89-9.9 3.04 9.9 3.04 3.04 9.89 3.04-9.89 9.89-3.04-9.89-3.04z"/>
			<path id="&lt;Path&gt;" class="s1" d="m712.04 942.11l3.04 9.89 9.89 3.04-9.89 3.04-3.04 9.89-3.04-9.89-9.89-3.04 9.89-3.04z"/>
			<path id="&lt;Path&gt;" class="s2" d="m1001.54 1281.75c209.62-83.55 273.71-203.53 280.34-218.05 6.42-14.06 10.83-21.35-0.92-32.74l-35.23-34.17c1.12-40.2-35.32-47.72-35.32-47.72-4.51-28.56-43.22-28.18-43.22-28.18-6.01-20.67-33.81-26.3-45.84-43.96 49.6-8.27 124-25.18 121-101.08-56.74-4.51-114.61-41.33-114.61-41.33-4.13-34.2-11.27-54.86-26.68-69.9 33.82 19.54 89.43 14.28 80.79-64.63-36.82 44.72-63.13-27.43-137.14-44.89-6.76-4.97-13.9-9.67-21.42-14.32-58.74 5.4-89.36 69.93-108.8 118.1-18.59 15.89-33.25 38.06-39.14 75.64 0 0-57.87 36.82-114.61 41.33-3.01 75.9 71.39 92.81 120.99 101.08-12.02 17.66-39.83 23.29-45.84 43.96 0 0-38.7-0.38-43.21 28.18 0 0-36.45 7.52-35.32 47.72l-35.24 34.17c-11.75 11.39-7.34 18.68-0.92 32.74 6.63 14.52 70.73 134.5 280.34 218.05z"/>
			<path id="&lt;Path&gt;" class="s3" d="m1001.54 1259.31c-73.26-30.04-145.04-71.69-201.72-127.31-19.25-18.9-46.27-49.35-59.5-76.12-2.76-5.59-1.92-11.94 2.21-16.62 9.17-10.37 12.72-15.5 20.84-25.18 0 0 5.26 21.79 21.42 34.57 0 0-22.92-52.98 4.13-76.28 0 0 0 26.3 16.53 45.46 0 0-13.52-68.38 19.17-74.39 0 0-1.13 19.16 7.89 30.06 0 0-3.76-32.32 37.95-57.12 0 0-3.76 69.89 23.3 126.63l4.13-18.04c0 0 16.53 89.06 79.66 137.91l-0.75-16.16c0 0 8.15 21.73 24.74 37.73 16.59-16 24.75-37.73 24.75-37.73l-0.75 16.16c63.12-48.85 79.65-137.91 79.65-137.91l4.14 18.04c27.05-56.74 23.29-126.63 23.29-126.63 41.71 24.8 37.96 57.12 37.96 57.12 9.01-10.9 7.89-30.06 7.89-30.06 32.69 6.01 19.16 74.39 19.16 74.39 16.53-19.16 16.53-45.46 16.53-45.46 27.06 23.3 4.14 76.28 4.14 76.28 16.15-12.78 21.42-34.57 21.42-34.57 8.11 9.68 11.67 14.81 20.83 25.18 4.13 4.68 4.98 11.03 2.22 16.62-13.23 26.77-40.25 57.22-59.51 76.12-56.67 55.62-128.46 97.27-201.72 127.31z"/>
			<path id="&lt;Path&gt;" class="s4" d="m1001.54 1184.45c16.59-16 24.75-37.73 24.75-37.73l-0.75 16.16c63.12-48.85 79.65-137.91 79.65-137.91l4.14 18.04c27.05-56.74 23.29-126.63 23.29-126.63 41.71 24.8 37.96 57.12 37.96 57.12 9.01-10.9 7.89-30.06 7.89-30.06 32.69 6.01 19.16 74.39 19.16 74.39 16.53-19.16 16.53-45.46 16.53-45.46 27.06 23.3 4.14 76.28 4.14 76.28 16.15-12.78 21.42-34.57 21.42-34.57 8.11 9.68 11.67 14.81 20.83 25.18 4.13 4.68 4.98 11.03 2.22 16.62-13.23 26.77-40.25 57.22-59.51 76.12q-10.41 10.21-21.48 19.81c53.93-96.49-25-122.95-25-122.95-53.36 122.88-155.24 155.59-155.24 155.59z"/>
			<path id="&lt;Path&gt;" class="s3" d="m1145.03 775.1c-0.76 6.01-9.77 19.54-17.67 24.8 30.82-11.28 96.95-8.27 96.95-8.27-27.06-1.88-77.03-30.81-101.08-41.71 4.89 8.64 5.26 16.16 5.26 16.16-71.06-53.04-182.83-53.04-253.9 0 0 0 0.38-7.52 5.26-16.16-24.05 10.9-74.02 39.83-101.07 41.71 0 0 66.13-3.01 96.94 8.27-7.89-5.26-16.91-18.79-17.66-24.8 78.4 47.83 208.57 47.83 286.97 0z"/>
			<path id="&lt;Path&gt;" class="s4" d="m1145.03 775.1c-0.76 6.01-9.77 19.54-17.67 24.8 30.82-11.28 96.95-8.27 96.95-8.27-27.06-1.88-77.03-30.81-101.08-41.71 4.89 8.64 5.26 16.16 5.26 16.16-21.93-16.37-47.73-27.68-75.02-33.94-0.13 0.31-34.5 85.96-195.41 42.96 78.4 47.83 208.57 47.83 286.97 0z"/>
			<path id="&lt;Path&gt;" class="s2" d="m1183.27 1134.05c24.76-22.69 53.8-53.86 68.5-83.6 0.55-1.13 0.42-2.12-0.41-3.06-2.82-3.2-8.64-9.26-12.02-11.89 2.25 24.42-39.21 82.36-56.07 98.55z"/>
			<path id="&lt;Path&gt;" class="s3" d="m1064.13 575.11c14.58 6.47 27.63 15.33 41.01 25.29 17.87 13.31 40.41 33.24 64.37 24.66-2.91 29.18-21.25 42.41-49.22 34.03-8.42-2.52-15.1-6.84-22.6-11.18 0 0 41.53 13.5 55.6-4.33 0 0-13.15 9.4-31.19-14.28 0 0-1.5 6.77 2.63 14.66-31.56-24.43-26.3-43.59-60.6-68.85z"/>
			<path id="&lt;Path&gt;" class="s5" d="m1064.13 575.11c14.58 6.47 27.63 15.33 41.01 25.29 17.87 13.31 40.41 33.24 64.37 24.66-2.91 29.18-21.25 42.41-49.22 34.03-8.42-2.52-15.1-6.84-22.6-11.18 0 0 54.21 29.62 66.23-16.22-31.27 8.47-65.76-38.7-99.79-56.58z"/>
			<path id="&lt;Path&gt;" class="s6" d="m1090.54 815.68c-1.12 31.73 5.29 64.49-26.51 82.8-9.49-7.54-19.01-11.6-30.65-14.56-1.93-5.42-11.23-3.99-8.22-22.02 0 0 4.51 9.77 15.4 10.89 0 0-7.51-3.75-10.52-13.52 0 0 7.89 10.14 22.55 9.77 0 0-11.27-3.76-15.03-13.53 25.93 3.38 41.33-14.66 40.58-37.58l12.4-2.25z"/>
			<path id="&lt;Path&gt;" class="s7" d="m1030.04 928.78c-9.88-5.65-47.11-5.65-57 0 12.26-15.83 44.75-15.83 57 0z"/>
			<path id="&lt;Path&gt;" class="s3" d="m935.29 648.98c20.16-11.82 40.38-15.54 40.38-15.54-48.85 21.04-73.66 68.58-73.66 68.58 49.89-34.02 149.18-34.02 199.07 0 0 0-24.82-47.54-73.67-68.58 0 0 32.69 6.01 56.37 27.05 0 0-8.27-37.2-61.63-59.37 0 0 18.04-1.5 46.22 17.66 0 0-18.04-26.3-53.73-36.45 0 0 30.06 0.76 58.62 23.68-14.28-21.04-33.07-36.45-53.74-49.23 0 0-48.85 4.51-84.23 92.2z"/>
			<path id="&lt;Compound Path&gt;" class="s4" d="m1074.73 688.67c9.72 3.63 18.63 8.08 26.35 13.35 0 0-24.82-47.54-73.67-68.58 0 0 35.16 18.26 47.32 55.23zm-47.32-55.23c0 0 32.69 6.01 56.37 27.05 0 0-8.27-37.2-61.63-59.37 0 0 61.14 38.2 5.26 32.32zm-4.42-32.34c3.86-0.03 20.74 0.93 45.38 17.68 0 0-18.04-26.3-53.73-36.45 0 0 43.52 17.62 8.35 18.77zm2.86-17.28c11.33 2.26 29.66 7.94 47.41 22.19-14.28-21.04-33.07-36.45-53.74-49.23 0 0 42.58 29.82 6.33 27.04z"/>
			<path id="&lt;Compound Path&gt;" class="s5" d="m935.29 648.98c20.16-11.82 40.38-15.54 40.38-15.54 0 0-12.78-2.5-27.43 2.38 0 0 27.05-65.75 71.28-79.04 0 0-48.85 4.51-84.23 92.2zm40.38-15.54c-48.85 21.04-73.66 68.58-73.66 68.58 5.48-3.74 11.56-7.07 18.1-9.98 0 0 16.86-37.69 55.56-58.6z"/>
			<path id="&lt;Path&gt;" class="s3" d="m1105.19 720.99c0 0 4.51 12.4 5.27 21.04-53.31-36.23-164.52-36.23-217.83 0 0.75-8.64 5.26-21.04 5.26-21.04 45.01-42.74 162.29-42.74 207.3 0z"/>
			<path id="&lt;Path&gt;" class="s4" d="m1105.19 720.99c0 0 4.51 12.4 5.27 21.04-53.31-36.23-164.52-36.23-217.83 0 34.57-30.68 78.53-35.19 112.35-37.07 33.42-1.85 29.62-13.35 29.53-13.62 28.48 4.26 54.34 14.13 70.68 29.65z"/>
			<path id="&lt;Path&gt;" class="s2" d="m1001.54 1246.04c-33.79-14.1-67.21-30.72-98.85-50.12 78.21 35.02 119.49 35.02 197.71 0-31.65 19.4-65.07 36.02-98.86 50.12z"/>
			<path id="&lt;Path&gt;" class="s7" d="m987.32 823.15c0 0 11.65 1.88 14.22 8.81 2.58-6.93 14.23-8.81 14.23-8.81-9.27-0.54-19.18-0.54-28.45 0z"/>
			<path id="&lt;Path&gt;" class="s5" d="m1001.54 1162.59c0 0-25.12-20.38-18.35-92.15 0 0-18.04 33.07-15.79 65.38 0 0-37.57-41.33-27.05-109.72 0 0-13.15 11.65-16.16 30.44 0 0-23.67-36.45-21.04-82.67 0 0-7.14 6.39-10.15 16.53 0 0-21.41-69.89 9.77-136.77-3.19 25.53 7.66 54.54 0 74.02 0 0-4.13-3.75-4.5-13.15 0 0-10.52 34.2 6.76 49.98-2.63-22.17 17-36.34 5.26-82.67 0 0 6.01 16.53 18.41 23.67 0 0-9.39 17.66-7.14 41.71 0 0 7.52-41.33 48.85-51.85 0 0 1.88 6.76 13.15 10.52 0 0-36.07 13.53-42.08 46.22 0 0 3-3.38 8.26-5.64 0 0-24.04 27.43-3.38 61.62 0 0-18.03-6.38-16.53-34.56-15.78 41.7 26.51 44.01 30.44 77.4 0 0 3.38-11.27-3.01-25.55 0 0 7.51 7.14 9.39 18.41 11.28-26.68-40.58-54.25-3-97.7 0 0-6.02 19.17 6.01 33.82 0 0-7.14-26.67 10.14-43.21 0 0-4.88 7.52-3.38 17.66 0 0 3.27-16.55 25.12-22.74 21.85 6.19 25.12 22.74 25.12 22.74 1.5-10.14-3.38-17.66-3.38-17.66 17.28 16.54 10.15 43.21 10.15 43.21 12.02-14.65 6.01-33.82 6.01-33.82 37.58 43.45-14.28 71.02-3.01 97.7 1.88-11.27 9.4-18.41 9.4-18.41-6.39 14.28-3.01 25.55-3.01 25.55 3.93-33.39 46.22-35.7 30.44-77.4 1.5 28.18-16.54 34.56-16.54 34.56 20.67-34.19-3.38-61.62-3.38-61.62 5.26 2.26 8.27 5.64 8.27 5.64-6.01-32.69-42.09-46.22-42.09-46.22 11.28-3.76 13.15-10.52 13.15-10.52 41.34 10.52 48.85 51.85 48.85 51.85 2.26-24.05-7.14-41.71-7.14-41.71 12.4-7.14 18.41-23.67 18.41-23.67-11.73 46.33 7.9 60.5 5.27 82.67 17.28-15.78 6.76-49.98 6.76-49.98-0.38 9.4-4.51 13.15-4.51 13.15-7.66-19.48 3.19-48.49 0-74.02 31.19 66.88 9.77 136.77 9.77 136.77-3.01-10.14-10.15-16.53-10.15-16.53 2.63 46.22-21.04 82.67-21.04 82.67-3-18.79-16.16-30.44-16.16-30.44 10.53 68.39-27.05 109.72-27.05 109.72 2.25-32.31-15.78-65.38-15.78-65.38 6.76 71.77-18.36 92.15-18.36 92.15z"/>
			<path id="&lt;Path&gt;" class="s6" d="m912.54 815.68c1.12 31.73-5.28 64.49 26.51 82.8 9.49-7.54 19.02-11.6 30.65-14.56 1.93-5.42 11.23-3.99 8.23-22.02 0 0-4.51 9.77-15.41 10.89 0 0 7.52-3.75 10.52-13.52 0 0-7.89 10.14-22.54 9.77 0 0 11.27-3.76 15.03-13.53-25.93 3.38-41.34-14.66-40.59-37.58l-12.4-2.25z"/>
			<path id="&lt;Compound Path&gt;" class="s7" d="m912.54 815.68c1.12 31.73-5.28 64.49 26.51 82.8 0 0-18.99-17.29-16.36-46.6 0 0 10.52 11.65 33.14 9.35 0 0-0.79 5.67-5.33 7.81 0 0 11.27-3.76 15.03-13.53-25.93 3.38-41.34-14.66-40.59-37.58l-12.4-2.25zm57.16 68.24c1.93-5.42 11.23-3.99 8.23-22.02 0 0-4.51 9.77-15.41 10.89 0 0 6.76 2.01 13.15-2.5 0.75 7.52-6.77 6.77-5.97 13.63zm-7.18-11.13c0 0 7.52-3.75 10.52-13.52 0 0-7.89 10.14-22.54 9.77 0 0 6 2.76 15.02-1.38 0 0-0.37 3.39-3 5.13z"/>
			<path id="&lt;Path&gt;" class="s6" d="m1001.54 906.69c-9 0.29-6.7-6.96-15.49-9.81-4.74-1.54-9.02-8.43-3.26-11.88 2.13-1.27 4.15-4.44 4.15-13.33 0-8.29-4.38-19.2 8.46-21.03 3.19-0.45 8.87-0.45 12.07-0.03 13.1 1.74 8.67 12.73 8.67 21.06 0 8.89 2.02 12.06 4.15 13.33 5.77 3.45 1.49 10.34-3.26 11.88-8.79 2.85-6.48 10.1-15.49 9.81z"/>
			<path id="&lt;Path&gt;" class="s7" d="m963.27 823.53c0 0 6.01 8.27 15.41 9.39 0 0-2.63-5.26-8.64-8.64 0 0 16.04 1.01 31.5 13.47 15.46-12.46 31.51-13.47 31.51-13.47-6.01 3.38-8.64 8.64-8.64 8.64 9.39-1.12 15.4-9.39 15.4-9.39-10.51 28.48-66.02 28.48-76.54 0z"/>
			<path id="&lt;Compound Path&gt;" class="s7" d="m1090.54 815.68c-1.12 31.73 5.29 64.49-26.51 82.8 0 0 19-17.29 16.37-46.6 0 0-10.52 11.65-33.15 9.35 0 0 0.79 5.67 5.34 7.81 0 0-11.27-3.76-15.03-13.53 25.93 3.38 41.33-14.66 40.58-37.58l12.4-2.25zm-57.16 68.24c-1.93-5.42-11.23-3.99-8.22-22.02 0 0 4.51 9.77 15.4 10.89 0 0-6.76 2.01-13.14-2.5-0.75 7.52 6.76 6.77 5.96 13.63zm7.18-11.13c0 0-7.51-3.75-10.52-13.52 0 0 7.89 10.14 22.55 9.77 0 0-6.01 2.76-15.03-1.38 0 0 0.38 3.39 3 5.13z"/>
			<path id="&lt;Path&gt;" class="s7" d="m1016.56 877.76c-0.27-1.66-0.42-3.66-0.42-6.09 0-8.33 4.43-19.32-8.67-21.06-3.2-0.42-8.88-0.42-12.07 0.03-12.84 1.83-8.46 12.74-8.46 21.03 0 2.43-0.15 4.43-0.41 6.09 5.46-20.49 24.57-20.49 30.03 0z"/>
			<path id="&lt;Path&gt;" class="s4" d="m1001.54 1184.45c-16.59-16-24.74-37.73-24.74-37.73l0.75 16.16c-63.13-48.85-79.66-137.91-79.66-137.91l-4.13 18.04c-27.06-56.74-23.3-126.63-23.3-126.63-41.71 24.8-37.95 57.12-37.95 57.12-9.02-10.9-7.89-30.06-7.89-30.06-32.69 6.01-19.17 74.39-19.17 74.39-16.53-19.16-16.53-45.46-16.53-45.46-27.05 23.3-4.13 76.28-4.13 76.28-16.16-12.78-21.42-34.57-21.42-34.57-8.12 9.68-11.67 14.81-20.84 25.18-4.13 4.68-4.97 11.03-2.21 16.62 13.23 26.77 40.25 57.22 59.5 76.12q10.42 10.21 21.48 19.81c-53.92-96.49 25-122.95 25-122.95 53.36 122.88 155.24 155.59 155.24 155.59z"/>
			<path id="&lt;Path&gt;" class="s0" d="m1001.54 931.59c-21.85 6.19-25.12 22.74-25.12 22.74-1.5-10.14 3.38-17.66 3.38-17.66-17.28 16.54-10.14 43.21-10.14 43.21 0 0-7.25 0.51-11.76-10.39-5.26 36.45 24.05 42.47 8.75 74.27 11.28-26.68-40.58-54.25-3-97.7 0 0-6.02 19.17 6.01 33.82-0.49-17.15 12.67-19.03 12.67-19.03 5.26-17.66 19.21-18.41 19.21-18.41 0 0 13.96 0.75 19.22 18.41 0 0 13.15 1.88 12.67 19.03 12.02-14.65 6.01-33.82 6.01-33.82 37.58 43.45-14.28 71.02-3.01 97.7-15.3-31.8 14.01-37.82 8.75-74.27-4.51 10.9-11.75 10.39-11.75 10.39 0 0 7.13-26.67-10.15-43.21 0 0 4.88 7.52 3.38 17.66 0 0-3.27-16.55-25.12-22.74z"/>
			<path id="&lt;Compound Path&gt;" fill-rule="evenodd" class="s0" d="m903.15 973.87c2.15 39.96 19.43 65.89 19.43 65.89 8.27-11.26 17.76-13.66 17.77-13.66q0 0 0 0 0 0 0 0 0 0 0 0c-0.01 0.02-13.15 11.66-16.16 30.44 0 0-23.67-36.45-21.04-82.67zm196.78 0c2.63 46.22-21.04 82.67-21.04 82.67-2.99-18.76-16.11-30.4-16.16-30.44q0 0 0 0 0 0 0 0c0.04 0.01 9.53 2.41 17.77 13.66 0 0 17.29-25.93 19.43-65.89zm-37.2 52.23q0 0 0 0 0 0 0 0 0 0 0 0 0 0 0 0zm0 0q0 0 0 0 0 0 0 0 0 0 0 0 0 0 0 0zm0 0q0 0 0 0 0 0 0 0zm0 0q0 0 0 0 0 0 0 0c10.53 68.39-27.05 109.72-27.05 109.72 2.25-32.26-15.72-65.28-15.78-65.38q0 0 0 0c0.05 0.03 17.4 12.19 23.03 34.33 0 0 22.92-38.33 19.8-78.67zm-42.83 44.34q0 0 0 0 0 0 0 0 0 0 0 0 0 0 0 0 0 0 0 0 0 0 0 0 0 0 0 0zm0 0q0 0 0 0c6.76 71.77-18.36 92.15-18.36 92.15 0 0-25.12-20.38-18.35-92.15 0 0-0.76 45.57 18.35 72.45 19.09-26.85 18.37-72.34 18.36-72.45zm-79.55-44.34c-3.11 40.34 19.81 78.67 19.81 78.67 5.63-22.17 23.03-34.33 23.03-34.33 0 0-18.04 33.07-15.79 65.38 0 0-37.56-41.33-27.05-109.72z"/>
			<path id="&lt;Path&gt;" class="s2" d="m819.81 1134.05c-24.75-22.69-53.79-53.86-68.49-83.6-0.56-1.13-0.42-2.12 0.4-3.06 2.83-3.2 8.64-9.26 12.02-11.89-2.25 24.42 39.22 82.36 56.07 98.55z"/>
			<path id="&lt;Path&gt;" class="s5" d="m1181.78 1151.81c0 0-95.64 69.79-180.24 94.23-84.6-24.44-180.24-94.23-180.24-94.23 52.81 45.84 115.96 81.14 180.24 107.5 64.29-26.36 127.44-61.66 180.24-107.5z"/>
		</g>
	</g>
</svg>
